<svg version="1.1" id="Layer_1" xmlns="http://www.w3.org/2000/svg" xmlns:xlink="http://www.w3.org/1999/xlink" x="0px" y="0px"
	 width="100%" viewBox="0 0 512 512" enable-background="new 0 0 512 512" xml:space="preserve">
<path fill="#000000" opacity="1.000000" stroke="none" 
	d="
M1.000000,196.000000 
	C1.000000,130.666672 1.000000,65.833336 1.000000,1.000000 
	C171.666672,1.000000 342.333344,1.000000 513.000000,1.000000 
	C513.000000,171.666672 513.000000,342.333344 513.000000,513.000000 
	C342.333344,513.000000 171.666672,513.000000 1.000000,513.000000 
	C1.000000,407.500000 1.000000,302.000000 1.000000,196.000000 
M317.575928,37.935322 
	C311.080170,35.479378 304.490204,33.237381 298.143036,30.443867 
	C296.101440,29.545319 294.000946,27.487404 293.141418,25.448174 
	C290.907959,20.149363 289.348450,14.566470 287.538788,9.153092 
	C266.996155,9.153092 246.696274,9.153092 226.393982,9.153092 
	C224.556549,14.813451 223.022858,20.441263 220.832367,25.800619 
	C220.056351,27.699207 217.930191,29.501202 215.983902,30.374865 
	C211.425964,32.420895 206.542587,33.727631 201.904312,35.612583 
	C195.864075,38.067276 189.860886,42.986080 183.975998,42.791164 
	C177.936157,42.591122 172.058090,37.506153 166.109344,34.558834 
	C165.688782,34.350460 165.269089,34.140305 165.553833,34.282188 
	C150.996918,48.872509 136.693634,63.208637 122.285095,77.650246 
	C124.898453,82.832321 127.862152,88.426392 130.506546,94.167542 
	C131.106827,95.470818 131.069397,97.470894 130.527435,98.832611 
	C126.642311,108.594307 122.694931,118.338257 118.409317,127.927849 
	C117.502068,129.957932 115.405762,132.009186 113.360367,132.870300 
	C108.065262,135.099594 102.492905,136.670364 97.172546,138.456589 
	C97.172546,159.102097 97.172546,179.402206 97.172546,199.453094 
	C101.521378,201.003677 105.549614,202.851776 109.778778,203.840347 
	C114.716278,204.994537 118.389984,206.616898 119.322983,212.413193 
	C119.853859,215.711227 121.945839,218.754517 123.312271,221.922241 
	C126.139427,228.476257 131.362396,235.134933 131.100418,241.567307 
	C130.831528,248.168961 125.195107,254.551987 122.199623,260.455505 
	C136.719666,275.047577 151.003220,289.402008 165.366669,303.836761 
	C170.733749,301.160706 176.318375,298.207977 182.070343,295.628418 
	C183.481064,294.995758 185.626831,295.103271 187.114426,295.686829 
	C196.741364,299.463470 206.230515,303.593353 215.877136,307.316437 
	C218.736710,308.420044 220.311203,309.814667 221.137131,312.891388 
	C222.589905,318.303253 224.686554,323.542267 226.515564,328.859436 
	C246.962814,328.859436 267.262695,328.859436 287.626434,328.859436 
	C289.175537,323.994385 290.812683,319.273407 292.167084,314.472717 
	C293.364960,310.226746 295.438171,307.509247 300.248474,306.804535 
	C303.691193,306.300140 307.030090,304.704620 310.267792,303.264374 
	C316.765106,300.374237 323.227722,294.757446 329.581146,294.925812 
	C336.142181,295.099670 342.556610,300.806854 348.457642,303.800385 
	C363.012543,289.243317 377.327911,274.925781 391.764709,260.486816 
	C388.720154,254.394592 385.474304,247.899612 382.573059,242.094208 
	C386.059967,233.267273 389.571747,224.996597 392.586151,216.548477 
	C394.951080,209.920670 397.822998,204.327866 405.687866,202.977570 
	C409.559082,202.312912 413.272705,200.730179 416.803223,199.641357 
	C416.803223,178.808380 416.803223,158.511719 416.803223,138.326035 
	C410.901550,136.441483 405.142700,134.803482 399.565155,132.687515 
	C398.073608,132.121689 396.685242,130.286026 396.019440,128.708389 
	C392.501770,120.373253 389.850006,111.607826 385.656586,103.645378 
	C382.833191,98.284416 382.660736,94.241074 385.883026,89.272957 
	C388.404480,85.385391 390.038422,80.922211 391.869843,77.123131 
	C377.405426,62.679909 363.167145,48.462498 348.785950,34.102364 
	C346.039917,35.466473 342.674591,36.546223 340.026581,38.566254 
	C332.518188,44.294041 325.440887,43.528206 317.575928,37.935322 
M253.011963,356.483551 
	C238.405457,371.095123 223.798965,385.706726 208.207794,401.303345 
	C214.785507,401.303345 219.847061,401.303345 225.157196,401.303345 
	C225.157196,433.362335 225.157196,464.956116 225.157196,496.769135 
	C246.479599,496.769135 267.529755,496.769135 289.027527,496.769135 
	C289.027527,464.828003 289.027527,433.114136 289.027527,400.891449 
	C294.481018,400.891449 299.508942,400.891449 303.976776,400.891449 
	C288.158142,385.065887 272.335114,369.235992 255.817886,352.711517 
	C255.238663,353.537292 254.379501,354.762177 253.011963,356.483551 
M118.289703,393.001465 
	C103.245552,393.001465 88.201401,393.001465 73.374954,393.001465 
	C73.374954,398.775360 73.374954,403.833984 73.374954,408.637848 
	C89.452385,408.637848 105.153214,408.637848 120.998665,408.637848 
	C120.998665,404.129028 121.105812,399.976776 120.918983,395.837799 
	C120.875420,394.872772 119.833145,393.952881 118.289703,393.001465 
M437.324066,408.999817 
	C438.547791,408.198364 440.754150,407.478821 440.828949,406.581635 
	C441.195648,402.181732 440.995239,397.734589 440.995239,393.265320 
	C424.743652,393.265320 409.045502,393.265320 393.283966,393.265320 
	C393.283966,398.587128 393.283966,403.639191 393.283966,409.000000 
	C407.829742,409.000000 422.093719,409.000000 437.324066,408.999817 
z"/>
<path fill="#F0BC5E" opacity="1.000000" stroke="none" 
	d="
M317.957672,37.993366 
	C325.440887,43.528206 332.518188,44.294041 340.026581,38.566254 
	C342.674591,36.546223 346.039917,35.466473 348.785950,34.102364 
	C363.167145,48.462498 377.405426,62.679909 391.869843,77.123131 
	C390.038422,80.922211 388.404480,85.385391 385.883026,89.272957 
	C382.660736,94.241074 382.833191,98.284416 385.656586,103.645378 
	C389.850006,111.607826 392.501770,120.373253 396.019440,128.708389 
	C396.685242,130.286026 398.073608,132.121689 399.565155,132.687515 
	C405.142700,134.803482 410.901550,136.441483 416.803223,138.326035 
	C416.803223,158.511719 416.803223,178.808380 416.803223,199.641357 
	C413.272705,200.730179 409.559082,202.312912 405.687866,202.977570 
	C397.822998,204.327866 394.951080,209.920670 392.586151,216.548477 
	C389.571747,224.996597 386.059967,233.267273 382.573059,242.094208 
	C385.474304,247.899612 388.720154,254.394592 391.764709,260.486816 
	C377.327911,274.925781 363.012543,289.243317 348.457642,303.800385 
	C342.556610,300.806854 336.142181,295.099670 329.581146,294.925812 
	C323.227722,294.757446 316.765106,300.374237 310.267792,303.264374 
	C307.030090,304.704620 303.691193,306.300140 300.248474,306.804535 
	C295.438171,307.509247 293.364960,310.226746 292.167084,314.472717 
	C290.812683,319.273407 289.175537,323.994385 287.626434,328.859436 
	C267.262695,328.859436 246.962814,328.859436 226.515564,328.859436 
	C224.686554,323.542267 222.589905,318.303253 221.137131,312.891388 
	C220.311203,309.814667 218.736710,308.420044 215.877136,307.316437 
	C206.230515,303.593353 196.741364,299.463470 187.114426,295.686829 
	C185.626831,295.103271 183.481064,294.995758 182.070343,295.628418 
	C176.318375,298.207977 170.733749,301.160706 165.366669,303.836761 
	C151.003220,289.402008 136.719666,275.047577 122.199623,260.455505 
	C125.195107,254.551987 130.831528,248.168961 131.100418,241.567307 
	C131.362396,235.134933 126.139427,228.476257 123.312271,221.922241 
	C121.945839,218.754517 119.853859,215.711227 119.322983,212.413193 
	C118.389984,206.616898 114.716278,204.994537 109.778778,203.840347 
	C105.549614,202.851776 101.521378,201.003677 97.172546,199.453094 
	C97.172546,179.402206 97.172546,159.102097 97.172546,138.456589 
	C102.492905,136.670364 108.065262,135.099594 113.360367,132.870300 
	C115.405762,132.009186 117.502068,129.957932 118.409317,127.927849 
	C122.694931,118.338257 126.642311,108.594307 130.527435,98.832611 
	C131.069397,97.470894 131.106827,95.470818 130.506546,94.167542 
	C127.862152,88.426392 124.898453,82.832321 122.285095,77.650246 
	C136.693634,63.208637 150.996918,48.872509 165.553833,34.282188 
	C165.269089,34.140305 165.688782,34.350460 166.109344,34.558834 
	C172.058090,37.506153 177.936157,42.591122 183.975998,42.791164 
	C189.860886,42.986080 195.864075,38.067276 201.904312,35.612583 
	C206.542587,33.727631 211.425964,32.420895 215.983902,30.374865 
	C217.930191,29.501202 220.056351,27.699207 220.832367,25.800619 
	C223.022858,20.441263 224.556549,14.813451 226.393982,9.153092 
	C246.696274,9.153092 266.996155,9.153092 287.538788,9.153092 
	C289.348450,14.566470 290.907959,20.149363 293.141418,25.448174 
	C294.000946,27.487404 296.101440,29.545319 298.143036,30.443867 
	C304.490204,33.237381 311.080170,35.479378 317.957672,37.993366 
M208.011093,251.512421 
	C229.821823,264.191467 253.136124,268.056824 277.760437,262.748444 
	C330.712006,251.333420 363.697754,197.013336 349.832001,144.407410 
	C335.877228,91.463684 279.678223,60.276707 227.757751,77.781708 
	C188.797455,90.917191 165.820496,118.912819 161.735123,159.831070 
	C157.816727,199.076752 174.351288,229.598953 208.011093,251.512421 
M177.940201,78.571541 
	C176.299835,76.522446 174.659454,74.473351 173.004883,72.406502 
	C168.491745,76.923843 164.888641,80.530296 161.783340,83.638481 
	C165.513763,87.284363 169.215866,90.902588 172.071793,93.693794 
	C175.497101,90.681770 179.301102,87.336769 183.626877,83.532928 
	C181.712143,81.885094 180.078094,80.478806 177.940201,78.571541 
M340.978882,94.615501 
	C345.063629,91.377670 349.148376,88.139839 352.394745,85.566544 
	C348.436646,81.075607 344.996033,77.171860 342.392944,74.218346 
	C338.561646,77.708191 334.814270,81.121613 330.932159,84.657753 
	C334.114166,87.815376 337.288818,90.965675 340.978882,94.615501 
M166.055222,248.539627 
	C164.219406,250.125458 162.383591,251.711288 160.936829,252.961029 
	C165.153931,257.447784 168.642151,261.159027 171.770264,264.487152 
	C175.658722,260.828613 179.364258,257.342224 182.847641,254.064804 
	C179.052078,250.400345 175.404114,246.878403 170.932755,242.561508 
	C169.645294,244.173401 168.100021,246.108078 166.055222,248.539627 
M333.527374,256.931183 
	C336.053650,259.742462 338.579926,262.553711 340.741669,264.959290 
	C345.035156,260.597260 348.679962,256.894257 351.439575,254.090561 
	C348.274750,250.589737 344.878784,246.833267 341.619141,243.227570 
	C338.045837,246.707016 334.500183,250.159515 330.764954,253.796631 
	C331.558716,254.717072 332.294159,255.569901 333.527374,256.931183 
M252.663834,41.001133 
	C251.444473,41.801456 249.246063,42.520264 249.171478,43.415905 
	C248.805969,47.805824 249.005737,52.242805 249.005737,56.732220 
	C254.574432,56.732220 259.616272,56.732220 264.729126,56.732220 
	C264.729126,51.419670 264.729126,46.377735 264.729126,41.000973 
	C260.850098,41.000973 257.236694,41.000973 252.663834,41.001133 
M132.665070,176.998871 
	C136.727448,176.998871 140.789810,176.998871 144.637695,176.998871 
	C144.637695,171.229614 144.637695,166.182922 144.637695,161.365173 
	C139.223648,161.365173 134.177948,161.365173 129.002258,161.365173 
	C129.002258,165.863968 128.828842,170.011719 129.125580,174.125534 
	C129.198730,175.139557 130.802246,176.043167 132.665070,176.998871 
M369.103760,176.211670 
	C374.248444,176.575256 379.393158,176.938828 384.769043,177.318741 
	C384.769043,171.502823 384.769043,166.461472 384.769043,161.233948 
	C379.496582,161.233948 374.455200,161.233948 369.013336,161.233948 
	C369.013336,166.055664 369.013336,170.655228 369.103760,176.211670 
M250.739914,296.986664 
	C255.465240,296.986664 260.190552,296.986664 264.614594,296.986664 
	C264.614594,291.181732 264.614594,286.132385 264.614594,281.389343 
	C259.175995,281.389343 254.127090,281.389343 248.618790,281.389343 
	C249.028351,286.836304 249.406570,291.866394 250.739914,296.986664 
z"/>
<path fill="#F0BC5E" opacity="1.000000" stroke="none" 
	d="
M253.266144,356.235291 
	C254.379501,354.762177 255.238663,353.537292 255.817886,352.711517 
	C272.335114,369.235992 288.158142,385.065887 303.976776,400.891449 
	C299.508942,400.891449 294.481018,400.891449 289.027527,400.891449 
	C289.027527,433.114136 289.027527,464.828003 289.027527,496.769135 
	C267.529755,496.769135 246.479599,496.769135 225.157196,496.769135 
	C225.157196,464.956116 225.157196,433.362335 225.157196,401.303345 
	C219.847061,401.303345 214.785507,401.303345 208.207794,401.303345 
	C223.798965,385.706726 238.405457,371.095123 253.266144,356.235291 
z"/>
<path fill="#F0BC5E" opacity="1.000000" stroke="none" 
	d="
M118.770042,393.006836 
	C119.833145,393.952881 120.875420,394.872772 120.918983,395.837799 
	C121.105812,399.976776 120.998665,404.129028 120.998665,408.637848 
	C105.153214,408.637848 89.452385,408.637848 73.374954,408.637848 
	C73.374954,403.833984 73.374954,398.775360 73.374954,393.001465 
	C88.201401,393.001465 103.245552,393.001465 118.770042,393.006836 
z"/>
<path fill="#F0BC5E" opacity="1.000000" stroke="none" 
	d="
M436.840881,408.999908 
	C422.093719,409.000000 407.829742,409.000000 393.283966,409.000000 
	C393.283966,403.639191 393.283966,398.587128 393.283966,393.265320 
	C409.045502,393.265320 424.743652,393.265320 440.995239,393.265320 
	C440.995239,397.734589 441.195648,402.181732 440.828949,406.581635 
	C440.754150,407.478821 438.547791,408.198364 436.840881,408.999908 
z"/>
<path fill="#010100" opacity="1.000000" stroke="none" 
	d="
M207.704926,251.313278 
	C174.351288,229.598953 157.816727,199.076752 161.735123,159.831070 
	C165.820496,118.912819 188.797455,90.917191 227.757751,77.781708 
	C279.678223,60.276707 335.877228,91.463684 349.832001,144.407410 
	C363.697754,197.013336 330.712006,251.333420 277.760437,262.748444 
	C253.136124,268.056824 229.821823,264.191467 207.704926,251.313278 
z"/>
<path fill="#0A0804" opacity="1.000000" stroke="none" 
	d="
M178.192123,78.822021 
	C180.078094,80.478806 181.712143,81.885094 183.626877,83.532928 
	C179.301102,87.336769 175.497101,90.681770 172.071793,93.693794 
	C169.215866,90.902588 165.513763,87.284363 161.783340,83.638481 
	C164.888641,80.530296 168.491745,76.923843 173.004883,72.406502 
	C174.659454,74.473351 176.299835,76.522446 178.192123,78.822021 
z"/>
<path fill="#060402" opacity="1.000000" stroke="none" 
	d="
M340.721161,94.365738 
	C337.288818,90.965675 334.114166,87.815376 330.932159,84.657753 
	C334.814270,81.121613 338.561646,77.708191 342.392944,74.218346 
	C344.996033,77.171860 348.436646,81.075607 352.394745,85.566544 
	C349.148376,88.139839 345.063629,91.377670 340.721161,94.365738 
z"/>
<path fill="#0A0804" opacity="1.000000" stroke="none" 
	d="
M166.304993,248.291199 
	C168.100021,246.108078 169.645294,244.173401 170.932755,242.561508 
	C175.404114,246.878403 179.052078,250.400345 182.847641,254.064804 
	C179.364258,257.342224 175.658722,260.828613 171.770264,264.487152 
	C168.642151,261.159027 165.153931,257.447784 160.936829,252.961029 
	C162.383591,251.711288 164.219406,250.125458 166.304993,248.291199 
z"/>
<path fill="#060402" opacity="1.000000" stroke="none" 
	d="
M333.278503,256.676941 
	C332.294159,255.569901 331.558716,254.717072 330.764954,253.796631 
	C334.500183,250.159515 338.045837,246.707016 341.619141,243.227570 
	C344.878784,246.833267 348.274750,250.589737 351.439575,254.090561 
	C348.679962,256.894257 345.035156,260.597260 340.741669,264.959290 
	C338.579926,262.553711 336.053650,259.742462 333.278503,256.676941 
z"/>
<path fill="#000000" opacity="1.000000" stroke="none" 
	d="
M253.143555,41.001053 
	C257.236694,41.000973 260.850098,41.000973 264.729126,41.000973 
	C264.729126,46.377735 264.729126,51.419670 264.729126,56.732220 
	C259.616272,56.732220 254.574432,56.732220 249.005737,56.732220 
	C249.005737,52.242805 248.805969,47.805824 249.171478,43.415905 
	C249.246063,42.520264 251.444473,41.801456 253.143555,41.001053 
z"/>
<path fill="#000000" opacity="1.000000" stroke="none" 
	d="
M132.183655,176.998199 
	C130.802246,176.043167 129.198730,175.139557 129.125580,174.125534 
	C128.828842,170.011719 129.002258,165.863968 129.002258,161.365173 
	C134.177948,161.365173 139.223648,161.365173 144.637695,161.365173 
	C144.637695,166.182922 144.637695,171.229614 144.637695,176.998871 
	C140.789810,176.998871 136.727448,176.998871 132.183655,176.998199 
z"/>
<path fill="#000000" opacity="1.000000" stroke="none" 
	d="
M369.058533,175.733246 
	C369.013336,170.655228 369.013336,166.055664 369.013336,161.233948 
	C374.455200,161.233948 379.496582,161.233948 384.769043,161.233948 
	C384.769043,166.461472 384.769043,171.502823 384.769043,177.318741 
	C379.393158,176.938828 374.248444,176.575256 369.058533,175.733246 
z"/>
<path fill="#000000" opacity="1.000000" stroke="none" 
	d="
M250.262360,296.941589 
	C249.406570,291.866394 249.028351,286.836304 248.618790,281.389343 
	C254.127090,281.389343 259.175995,281.389343 264.614594,281.389343 
	C264.614594,286.132385 264.614594,291.181732 264.614594,296.986664 
	C260.190552,296.986664 255.465240,296.986664 250.262360,296.941589 
z"/>
</svg>